<svg xmlns="http://www.w3.org/2000/svg" viewBox="0 0 413.98 413.98" style=""><defs><style>.cls-1,.cls-10,.cls-11,.cls-12,.cls-13,.cls-14,.cls-15,.cls-16,.cls-17,.cls-2,.cls-3,.cls-4,.cls-5,.cls-6,.cls-7,.cls-8,.cls-9{fill:none;}.cls-1,.cls-18,.cls-19,.cls-2,.cls-20,.cls-21,.cls-22{stroke:#262424;}.cls-1,.cls-10,.cls-11,.cls-12,.cls-13,.cls-14,.cls-15,.cls-16,.cls-17,.cls-18,.cls-19,.cls-2,.cls-20,.cls-21,.cls-22,.cls-3,.cls-4,.cls-5,.cls-6,.cls-7,.cls-8,.cls-9{stroke-miterlimit:10;}.cls-1{stroke-width:151.98px;}.cls-2{stroke-width:60px;}.cls-10,.cls-11,.cls-12,.cls-13,.cls-14,.cls-15,.cls-16,.cls-17,.cls-3,.cls-4,.cls-5,.cls-6,.cls-7,.cls-8,.cls-9{stroke:#80757a;}.cls-3{stroke-width:6.33px;}.cls-4{stroke-width:3.58px;}.cls-5{stroke-width:3.85px;}.cls-6{stroke-width:1.24px;}.cls-7{stroke-width:1.24px;}.cls-8{stroke-width:8.74px;}.cls-9{stroke-width:9.98px;}.cls-10{stroke-width:8.38px;}.cls-11{stroke-width:7.28px;}.cls-12{stroke-width:8.4px;}.cls-13{stroke-width:1.63px;}.cls-14{stroke-width:8.21px;}.cls-15{stroke-width:7.42px;}.cls-16{stroke-width:3.24px;}.cls-17{stroke-width:8.75px;}.cls-18,.cls-19,.cls-20,.cls-21,.cls-22{fill:#fff;}.cls-18{stroke-width:3.93px;}.cls-19{stroke-width:5.36px;}.cls-20{stroke-width:4px;}.cls-21{stroke-width:4.96px;}.cls-22{stroke-width:4.01px;}.cls-23{fill:#ca2084;}</style></defs><title>lineSvgAnimate4</title><g id="Capa_2" data-name="Capa 2"><path class="cls-1 iJWpbirm_0" d="M926.3,725.51c-72.23,0-131-58.77-131-131s58.77-131,131-131,131,58.77,131,131S998.53,725.51,926.3,725.51Z" transform="translate(-719.31 -387.52)"></path><path class="cls-2 iJWpbirm_1" d="M924,631.91a37,37,0,1,1,37-37A37,37,0,0,1,924,631.91Z" transform="translate(-719.31 -387.52)"></path><path class="cls-2 iJWpbirm_2" d="M926.3,594.91a37,37,0,1,1,37-37A37,37,0,0,1,926.3,594.91Z" transform="translate(-719.31 -387.52)"></path></g><g id="tipo"><path class="cls-3 iJWpbirm_3" d="M295.66,214.79L295.66,217.43"></path><path class="cls-4 iJWpbirm_4" d="M298.45,214.79L298.45,217.43"></path><path class="cls-5 iJWpbirm_5" d="M297.37,216.81L297.37,218.97"></path><path class="cls-6 iJWpbirm_6" d="M832.31,592.52v-7.13h57.2v7.13Zm0,0V495.07h7.13v97.45Z" transform="translate(-719.31 -387.52)"></path><path class="cls-6 iJWpbirm_7" d="M911.49,582.13a53.7,53.7,0,0,0,8.72,3.25l-1.93,6.56a39.76,39.76,0,0,1-10.19-3.66Z" transform="translate(-719.31 -387.52)"></path><path class="cls-6 iJWpbirm_8" d="M930.41,593.47a49.45,49.45,0,0,1-12.14-1.53l-2-.51,2.26-6.49,1.69.43a41.44,41.44,0,0,0,10.21,1.21,42.78,42.78,0,0,0,37.84-62.82l-.22-.42V510.91L971.5,516A48.82,48.82,0,0,1,980,540.39h23.65v6.88H980a49.67,49.67,0,0,1-17.86,34.85V592.4h-6.88v-5.56A49.67,49.67,0,0,1,930.41,593.47Z" transform="translate(-719.31 -387.52)"></path><path class="cls-7 iJWpbirm_9" d="M959.65,592.52v-7.16h57v7.16Zm-51.32-3.89a50,50,0,0,1,39.53-91.69l1.31.51v7.69L946.38,504a42.79,42.79,0,0,0-59,39.64,42.53,42.53,0,0,0,23.78,38.43l1.62.78-2.36,6.76Zm46.55-93.89H962v68.18l-.31.47a53.79,53.79,0,0,1-3.22,4.39l-3.63,4.53Zm.06,7.16v-7.16h61.76v7.16Z" transform="translate(-719.31 -387.52)"></path><path class="cls-6 iJWpbirm_10" d="M914.77,699.54l-25.4-83.2-24.95,83-4.14-10.89,26-86.38h6.21l29.81,97.45Zm-58.12,0-30.71-97.45h7.69l30.71,97.45Zm62.28-11,25.87-86.49h7.69l-30.17,97.57Z" transform="translate(-719.31 -387.52)"></path><path class="cls-6 iJWpbirm_11" d="M980.18,699.77V667.35l-35.76-65h8.32l34.56,63.06,0,34.39Zm3-39.43,28.95-58h8.33l-33.21,65.06Z" transform="translate(-719.31 -387.52)"></path><path class="cls-8 iJWpbirm_12" d="M969.77,518.59s7.7,5.43,7.64,23.23v1.54h27.16" transform="translate(-719.31 -387.52)"></path><path class="cls-9 iJWpbirm_13" d="M164.53,155.38A46.68,46.68 0,1,1 257.89,155.38A46.68,46.68 0,1,1 164.53,155.38"></path><path class="cls-10 iJWpbirm_14" d="M111,214.84L112.5,220.06L142.03,310.98"></path><path class="cls-11 iJWpbirm_15" d="M230.52,215.26L232.13,218.68L264.24,278.47"></path><path class="cls-12 iJWpbirm_16" d="M169.68,214.84L171.1,220.07L199.33,311.23"></path><path class="cls-13 iJWpbirm_17" d="M107.45,215.27L111.44,215.02"></path><path class="cls-14 iJWpbirm_18" d="M170.74,215.7L169.23,220.65L141.44,310.98"></path><path class="cls-14 iJWpbirm_19" d="M228.44,215.26L227.26,219.14L199,310.98"></path><path class="cls-15 iJWpbirm_20" d="M265.06,311.76L265.06,276.92L294.58,218.62L297.37,215.7"></path><path class="cls-16 iJWpbirm_21" d="M168.84,215.87L168.84,214.19"></path><path class="cls-16 iJWpbirm_22" d="M232.07,216.08L227.53,216.08"></path><path class="cls-17 iJWpbirm_23" d="M298.58,201L239.31,201L239.31,110.66L298.58,110.66"></path><path class="cls-17 iJWpbirm_24" d="M116.56,106.48L116.56,201L171.08,201"></path><path class="cls-18 iJWpbirm_25" d="M302.41,212.21L292.32,212.21"></path><path class="cls-19 iJWpbirm_26" d="M234.75,211.56L223.99,211.56"></path><path class="cls-19 iJWpbirm_27" d="M175.28,211.39L164.53,211.39"></path><path class="cls-19 iJWpbirm_28" d="M204.71,315.14L193.96,315.14"></path><path class="cls-19 iJWpbirm_29" d="M146.81,315.14L136.06,315.14"></path><path class="cls-20 iJWpbirm_30" d="M964.82,563s-4.31,8.46-11.88,12.5" transform="translate(-719.31 -387.52)"></path><path class="cls-21 iJWpbirm_31" d="M232.48,106.14L232.48,124.37"></path><path class="cls-22 iJWpbirm_32" d="M245.83,115.31L245.83,138.62"></path><path class="cls-23 iJWpbirm_33" d="M982.09,547.85V539h22.48v8.84Z" transform="translate(-719.31 -387.52)"></path></g><style data-made-with="vivus-instant">.iJWpbirm_0{stroke-dasharray:824 826;stroke-dashoffset:825;animation:iJWpbirm_draw 2000ms ease 0ms forwards;}.iJWpbirm_1{stroke-dasharray:233 235;stroke-dashoffset:234;animation:iJWpbirm_draw 2000ms ease 30ms forwards;}.iJWpbirm_2{stroke-dasharray:233 235;stroke-dashoffset:234;animation:iJWpbirm_draw 2000ms ease 60ms forwards;}.iJWpbirm_3{stroke-dasharray:3 5;stroke-dashoffset:4;animation:iJWpbirm_draw 2000ms ease 90ms forwards;}.iJWpbirm_4{stroke-dasharray:3 5;stroke-dashoffset:4;animation:iJWpbirm_draw 2000ms ease 121ms forwards;}.iJWpbirm_5{stroke-dasharray:3 5;stroke-dashoffset:4;animation:iJWpbirm_draw 2000ms ease 151ms forwards;}.iJWpbirm_6{stroke-dasharray:338 340;stroke-dashoffset:339;animation:iJWpbirm_draw 2000ms ease 181ms forwards;}.iJWpbirm_7{stroke-dasharray:35 37;stroke-dashoffset:36;animation:iJWpbirm_draw 2000ms ease 212ms forwards;}.iJWpbirm_8{stroke-dasharray:310 312;stroke-dashoffset:311;animation:iJWpbirm_draw 2000ms ease 242ms forwards;}.iJWpbirm_9{stroke-dasharray:738 740;stroke-dashoffset:739;animation:iJWpbirm_draw 2000ms ease 272ms forwards;}.iJWpbirm_10{stroke-dasharray:823 825;stroke-dashoffset:824;animation:iJWpbirm_draw 2000ms ease 303ms forwards;}.iJWpbirm_11{stroke-dasharray:383 385;stroke-dashoffset:384;animation:iJWpbirm_draw 2000ms ease 333ms forwards;}.iJWpbirm_12{stroke-dasharray:54 56;stroke-dashoffset:55;animation:iJWpbirm_draw 2000ms ease 363ms forwards;}.iJWpbirm_13{stroke-dasharray:294 296;stroke-dashoffset:295;animation:iJWpbirm_draw 2000ms ease 393ms forwards;}.iJWpbirm_14{stroke-dasharray:102 104;stroke-dashoffset:103;animation:iJWpbirm_draw 2000ms ease 424ms forwards;}.iJWpbirm_15{stroke-dasharray:72 74;stroke-dashoffset:73;animation:iJWpbirm_draw 2000ms ease 454ms forwards;}.iJWpbirm_16{stroke-dasharray:101 103;stroke-dashoffset:102;animation:iJWpbirm_draw 2000ms ease 484ms forwards;}.iJWpbirm_17{stroke-dasharray:4 6;stroke-dashoffset:5;animation:iJWpbirm_draw 2000ms ease 515ms forwards;}.iJWpbirm_18{stroke-dasharray:100 102;stroke-dashoffset:101;animation:iJWpbirm_draw 2000ms ease 545ms forwards;}.iJWpbirm_19{stroke-dasharray:101 103;stroke-dashoffset:102;animation:iJWpbirm_draw 2000ms ease 575ms forwards;}.iJWpbirm_20{stroke-dasharray:105 107;stroke-dashoffset:106;animation:iJWpbirm_draw 2000ms ease 606ms forwards;}.iJWpbirm_21{stroke-dasharray:2 4;stroke-dashoffset:3;animation:iJWpbirm_draw 2000ms ease 636ms forwards;}.iJWpbirm_22{stroke-dasharray:5 7;stroke-dashoffset:6;animation:iJWpbirm_draw 2000ms ease 666ms forwards;}.iJWpbirm_23{stroke-dasharray:209 211;stroke-dashoffset:210;animation:iJWpbirm_draw 2000ms ease 696ms forwards;}.iJWpbirm_24{stroke-dasharray:150 152;stroke-dashoffset:151;animation:iJWpbirm_draw 2000ms ease 727ms forwards;}.iJWpbirm_25{stroke-dasharray:11 13;stroke-dashoffset:12;animation:iJWpbirm_draw 2000ms ease 757ms forwards;}.iJWpbirm_26{stroke-dasharray:11 13;stroke-dashoffset:12;animation:iJWpbirm_draw 2000ms ease 787ms forwards;}.iJWpbirm_27{stroke-dasharray:11 13;stroke-dashoffset:12;animation:iJWpbirm_draw 2000ms ease 818ms forwards;}.iJWpbirm_28{stroke-dasharray:11 13;stroke-dashoffset:12;animation:iJWpbirm_draw 2000ms ease 848ms forwards;}.iJWpbirm_29{stroke-dasharray:11 13;stroke-dashoffset:12;animation:iJWpbirm_draw 2000ms ease 878ms forwards;}.iJWpbirm_30{stroke-dasharray:18 20;stroke-dashoffset:19;animation:iJWpbirm_draw 2000ms ease 909ms forwards;}.iJWpbirm_31{stroke-dasharray:19 21;stroke-dashoffset:20;animation:iJWpbirm_draw 2000ms ease 939ms forwards;}.iJWpbirm_32{stroke-dasharray:24 26;stroke-dashoffset:25;animation:iJWpbirm_draw 2000ms ease 969ms forwards;}.iJWpbirm_33{stroke-dasharray:63 65;stroke-dashoffset:64;animation:iJWpbirm_draw 2000ms ease 1000ms forwards;}@keyframes iJWpbirm_draw{100%{stroke-dashoffset:0;}}@keyframes iJWpbirm_fade{0%{stroke-opacity:1;}94.44444444444444%{stroke-opacity:1;}100%{stroke-opacity:0;}}</style></svg>