<svg id="Layer_1" data-name="Layer 1" xmlns="http://www.w3.org/2000/svg" viewBox="0 0 287.87 76.25"><defs><style>.cls-1{fill:#069;}.cls-2{fill:#fff;}</style></defs><title>linked_</title><path class="cls-1" d="M222.38,21.52a5.53,5.53,0,0,1,5.6-5.46h64.57a5.53,5.53,0,0,1,5.6,5.46V86.84a5.53,5.53,0,0,1-5.6,5.46H228a5.53,5.53,0,0,1-5.6-5.46Z" transform="translate(-10.29 -16.05)"/><polygon points="0 63.87 31.62 63.87 31.62 53.49 11.44 53.49 11.44 13.88 0 13.88 0 63.87"/><path d="M57.92,79.92V45.49H46.47V79.92ZM52.19,40.79c4,0,6.47-2.64,6.47-5.95s-2.48-5.95-6.4-5.95-6.47,2.57-6.47,5.95,2.48,5.95,6.32,5.95Z" transform="translate(-10.29 -16.05)"/><path d="M63.23,79.92H74.67V60.69A7.84,7.84,0,0,1,75,57.9a6.27,6.27,0,0,1,5.87-4.18c4.14,0,5.8,3.16,5.8,7.78V79.92H98.16V60.18c0-10.58-5.65-15.5-13.18-15.5a11.4,11.4,0,0,0-10.39,5.8h.08v-5H63.23c.15,3.23,0,34.43,0,34.43Z" transform="translate(-10.29 -16.05)"/><path d="M114.31,29.94H102.86v50h11.44V68.76l2.86-3.6,9,14.76H140.2L125.15,58.55,138.32,44H124.54s-9.41,13-10.24,14.55V29.94Z" transform="translate(-10.29 -16.05)"/><path d="M170.81,65.56a28,28,0,0,0,.38-4.5c0-8.9-4.52-17.94-16.41-17.94-12.72,0-18.6,10.06-18.6,19.19,0,11.29,7.15,18.34,19.65,18.34a35.56,35.56,0,0,0,13.33-2.28l-1.51-7.56a31.14,31.14,0,0,1-10.16,1.54c-5.35,0-10-2.19-10.39-6.87l23.72.07ZM147,57.82c.3-2.94,2.26-7.27,7.15-7.27,5.19,0,6.4,4.63,6.4,7.27Z" transform="translate(-10.29 -16.05)"/><path d="M199.43,29.94v17.3h-.15c-1.66-2.42-5.12-4-9.71-4-8.81,0-16.56,7.05-16.49,19.09,0,11.16,7,18.44,15.74,18.44,4.74,0,9.26-2.06,11.52-6h.23l.45,5.21h10.17c-.15-2.42-.3-6.61-.3-10.72V29.94Zm0,34.05a12.85,12.85,0,0,1-.23,2.5,6.74,6.74,0,0,1-6.7,5.36c-4.74,0-7.83-3.82-7.83-9.84,0-5.65,2.63-10.21,7.9-10.21a6.77,6.77,0,0,1,6.7,5.43,9.5,9.5,0,0,1,.15,2.06V64Z" transform="translate(-10.29 -16.05)"/><path class="cls-2" d="M245.35,79.88V45.45H233.91V79.88Zm-5.72-39.13c4,0,6.47-2.64,6.47-5.95s-2.48-5.95-6.4-5.95-6.47,2.57-6.47,5.95,2.48,5.95,6.32,5.95h.08Z" transform="translate(-10.29 -16.05)"/><path class="cls-2" d="M251.68,79.88h11.44V60.65a7.85,7.85,0,0,1,.38-2.79,6.26,6.26,0,0,1,5.87-4.19c4.14,0,5.8,3.16,5.8,7.79V79.88h11.44V60.14c0-10.57-5.65-15.5-13.18-15.5a11.4,11.4,0,0,0-10.39,5.8h.08v-5H251.68c.15,3.23,0,34.43,0,34.43Z" transform="translate(-10.29 -16.05)"/></svg>