<svg id="Capa_1" data-name="Capa 1" xmlns="http://www.w3.org/2000/svg" viewBox="0 0 80.9 81.41"><defs><style>.cls-1{fill:#069;}.cls-2{fill:#fff;}</style></defs><title>Logo-Link</title><path class="cls-1" d="M2.73,8.08a5.91,5.91,0,0,1,6-5.83H77.65a5.91,5.91,0,0,1,6,5.83V77.83a5.91,5.91,0,0,1-6,5.83H8.7a5.91,5.91,0,0,1-6-5.83Z" transform="translate(-2.73 -2.25)"/><path class="cls-2" d="M27.25,70.4V33.64H15V70.4ZM21.14,28.62c4.26,0,6.91-2.82,6.91-6.35s-2.65-6.35-6.83-6.35-6.91,2.74-6.91,6.35,2.65,6.35,6.75,6.35h.08Z" transform="translate(-2.73 -2.25)"/><path class="cls-2" d="M34,70.4H46.23V49.87a8.39,8.39,0,0,1,.4-3,6.69,6.69,0,0,1,6.27-4.47c4.42,0,6.19,3.37,6.19,8.31V70.4H71.31V49.32c0-11.29-6-16.55-14.07-16.55A12.17,12.17,0,0,0,46.15,39h.08V33.64H34c.16,3.45,0,36.76,0,36.76Z" transform="translate(-2.73 -2.25)"/></svg>