<?xml version="1.0" encoding="utf-8"?>
<!-- Generator: Adobe Illustrator 21.0.0, SVG Export Plug-In . SVG Version: 6.00 Build 0)  -->
<svg version="1.1" id="Capa_1" xmlns="http://www.w3.org/2000/svg" xmlns:xlink="http://www.w3.org/1999/xlink" x="0px" y="0px"
	 viewBox="0 0 121.5 30.3" style="enable-background:new 0 0 121.5 30.3;" xml:space="preserve">
<style type="text/css">
	.st0{clip-path:url(#SVGID_2_);}
	.st1{fill:#C7C7C8;}
</style>
<title>logobrand2</title>
<g>
	<defs>
		
			<rect id="SVGID_1_" x="464.2" y="-103.2" transform="matrix(-1.836970e-16 1 -1 -1.836970e-16 707.6675 -362.5758)" width="141.9" height="551.6"/>
	</defs>
	<clipPath id="SVGID_2_">
		<use xlink:href="#SVGID_1_"  style="overflow:visible;"/>
	</clipPath>
	<g class="st0">
		<g>
			
				<text transform="matrix(1 0 0 1 258.9852 132.2578)" class="st1" style="font-family:'SevigneST-Regular'; font-size:30.9341px;">design with a meaning</text>
		</g>
		<g>
			<g>
				
					<text transform="matrix(1 0 0 1 16.8353 157.7212)" class="st1" style="font-family:'SevigneST-Regular'; font-size:30.9341px;">design with a meaning</text>
			</g>
			<g>
				
					<text transform="matrix(1 0 0 1 399.617 157.7212)" class="st1" style="font-family:'SevigneST-Regular'; font-size:30.9341px;">design with a meaning</text>
			</g>
		</g>
		<g>
			
				<text transform="matrix(1 0 0 1 172.1908 183.1846)" class="st1" style="font-family:'SevigneST-Regular'; font-size:30.9341px;">design with a meaning</text>
		</g>
		<g>
			
				<text transform="matrix(1 0 0 1 117.6947 234.1113)" class="st1" style="font-family:'SevigneST-Regular'; font-size:30.9341px;">design with a meaning</text>
		</g>
		<g>
			<g>
				
					<text transform="matrix(1 0 0 1 -40.0456 208.648)" class="st1" style="font-family:'SevigneST-Regular'; font-size:30.9341px;">design with a meaning</text>
			</g>
			<g>
				
					<text transform="matrix(1 0 0 1 351.4915 208.648)" class="st1" style="font-family:'SevigneST-Regular'; font-size:30.9341px;">design with a meaning</text>
			</g>
		</g>
	</g>
</g>
<g>
	<text transform="matrix(1 0 0 1 189.8333 -149.7259)" class="st1" style="font-family:'SevigneST-Regular'; font-size:30.9341px;">DESIGN WITH A MEANING</text>
</g>
<g>
	<text transform="matrix(1 0 0 1 189.8333 -120.5833)" class="st1" style="font-family:'SevigneST-Regular'; font-size:30.9341px;">MEANING DESIGN WITH A MEANING</text>
</g>
<g>
	<text transform="matrix(1 0 0 1 189.8333 -91.5833)" class="st1" style="font-family:'SevigneST-Regular'; font-size:30.9341px;">N wITH A MEANING</text>
</g>
<g>
	<text transform="matrix(1 0 0 1 189.8333 -62.0833)" class="st1" style="font-family:'SevigneST-Regular'; font-size:30.9341px;">NING DESIGN WITH A MEANING</text>
</g>
<g>
	<text transform="matrix(1 0 0 1 189.8333 -33.5833)" class="st1" style="font-family:'SevigneST-Regular'; font-size:30.9341px;">vITH A MEANING</text>
</g>
<g>
	<g>
		<path class="st1" d="M0.5,5.8V0.6h0.2v5.3H0.5z M1.2,5.8V5.7h0.8c0.4,0,0.9-0.1,1.2-0.3C3.7,5.1,4,4.8,4.2,4.4
			c0.2-0.4,0.3-0.8,0.3-1.2c0-0.3-0.1-0.7-0.2-1C4.2,1.9,4,1.7,3.8,1.5S3.3,1.1,3,0.9c-0.3-0.1-0.6-0.2-1-0.2H1.2V0.6h0.8
			c0.5,0,0.9,0.1,1.3,0.4s0.7,0.6,1,1c0.2,0.4,0.4,0.8,0.4,1.3c0,0.5-0.1,0.9-0.4,1.3c-0.2,0.4-0.6,0.7-1,1C3,5.7,2.5,5.8,2.1,5.8
			H1.2z"/>
		<path class="st1" d="M5.7,5.8V0.6h0.2v5.3H5.7z"/>
		<path class="st1" d="M7.1,5l0.2-0.1C7.4,5.1,7.6,5.4,8,5.5c0.3,0.1,0.7,0.2,1,0.2c0.2,0,0.4,0,0.6-0.1l0.1,0.2
			C9.4,5.9,9.2,5.9,9,5.9c-0.4,0-0.8-0.1-1.1-0.2C7.5,5.5,7.3,5.3,7.1,5z M10.1,5.5c0.4-0.2,0.6-0.5,0.6-0.9c0-0.1,0-0.2-0.1-0.3
			S10.6,4,10.5,3.9c-0.1-0.1-0.1-0.2-0.2-0.2c-0.1-0.1-0.2-0.1-0.3-0.2c-0.1,0-0.2-0.1-0.3-0.2C9.5,3.3,9.4,3.3,9.3,3.2
			C9.2,3.2,9.1,3.2,9,3.1C8.5,3,8.2,2.9,8,2.8c-0.5-0.3-0.7-0.6-0.7-1c0-0.4,0.2-0.7,0.5-0.9L7.9,1C7.6,1.2,7.4,1.4,7.4,1.7
			c0,0.1,0,0.2,0,0.3c0,0.1,0.1,0.2,0.1,0.2c0,0.1,0.1,0.1,0.2,0.2C7.9,2.5,8,2.5,8,2.6c0.1,0,0.2,0.1,0.3,0.1
			c0.1,0,0.2,0.1,0.3,0.1c0.1,0,0.2,0.1,0.3,0.1C9.2,3,9.4,3.1,9.5,3.1c0.1,0,0.3,0.1,0.5,0.2c0.2,0.1,0.3,0.2,0.5,0.3
			c0.1,0.1,0.2,0.2,0.3,0.4c0.1,0.2,0.1,0.3,0.1,0.5c0,0.5-0.2,0.9-0.7,1.1L10.1,5.5z M8.4,0.7L8.3,0.6C8.5,0.5,8.7,0.5,9,0.5
			c0.3,0,0.6,0.1,0.9,0.2c0.3,0.1,0.5,0.3,0.8,0.5l-0.1,0.1c-0.2-0.2-0.4-0.3-0.7-0.4S9.3,0.7,9,0.7C8.8,0.7,8.6,0.7,8.4,0.7z"/>
		<path class="st1" d="M11.7,5.8V0.6h0.2v5.3H11.7z M12.4,0.7V0.6H15v0.2H12.4z M12.4,3.3V3.1h1.8v0.2H12.4z M12.4,5.8V5.7H15v0.2
			H12.4z"/>
		<path class="st1" d="M16.7,5.6c-0.5-0.2-0.8-0.6-1.1-1c-0.3-0.4-0.4-0.9-0.4-1.4c0-0.4,0.1-0.7,0.2-1.1c0.1-0.3,0.3-0.6,0.6-0.9
			c0.2-0.2,0.5-0.4,0.9-0.6c0.3-0.1,0.7-0.2,1-0.2c0.2,0,0.5,0,0.7,0.1l-0.1,0.2c-0.2,0-0.4-0.1-0.6-0.1c-0.3,0-0.7,0.1-1,0.2
			C16.5,1,16.3,1.2,16,1.4c-0.2,0.2-0.4,0.5-0.5,0.8c-0.1,0.3-0.2,0.6-0.2,1c0,0.5,0.1,0.9,0.4,1.3c0.3,0.4,0.6,0.7,1,0.9L16.7,5.6z
			 M17.2,5.8l0.1-0.2c0.2,0,0.4,0.1,0.6,0.1c0.5,0,0.9-0.1,1.2-0.3c0.4-0.2,0.7-0.5,0.9-0.9c0.2-0.4,0.3-0.8,0.4-1.2h-2.1V3.1h2.3
			c0,0,0,0.1,0,0.1c0,0.4-0.1,0.7-0.2,1c-0.1,0.3-0.3,0.6-0.6,0.9c-0.2,0.2-0.5,0.4-0.9,0.6s-0.7,0.2-1.1,0.2
			C17.6,5.9,17.4,5.9,17.2,5.8z M18.9,0.9L19,0.8c0.4,0.2,0.8,0.5,1.1,0.9h-0.2C19.6,1.4,19.3,1.1,18.9,0.9z"/>
		<path class="st1" d="M21.3,5.8V0.6h0.2l3.7,5.2v0.1H25l-3.5-5v5H21.3z M25,4.6v-4h0.2v4.3L25,4.6z"/>
		<path class="st1" d="M30.8,5.8l-2-5.3H29l2,5.3H30.8z M31.2,4.8l1.3-4.2h0.2l1.6,5.3h-0.2l-1.5-5l-1.3,4.2L31.2,4.8z M34.5,4.8
			l1.6-4.3h0.2l-1.7,4.5L34.5,4.8z"/>
		<path class="st1" d="M37.3,5.8V0.6h0.2v5.3H37.3z"/>
		<path class="st1" d="M38.5,0.7V0.6h3.6l0.3,0.3C42.5,1,42.6,1,42.8,1c0.1,0,0.2,0,0.3-0.1l0.3-0.3h0.2v2.6h3.1v0.2h-3.1v2.5h-0.2
			v-5L43.2,1c-0.1,0.1-0.3,0.2-0.4,0.2c-0.2,0-0.3-0.1-0.4-0.2l-0.3-0.2H38.5z M40.4,5.8V1.3h0.2v4.6H40.4z M47.2,5.8V0.6h0.2v5.3
			H47.2z"/>
		<path class="st1" d="M51,5.8l0.5-1.2c0.1-0.1,0.1-0.2,0.2-0.3c0.1-0.1,0.2-0.1,0.4-0.1h2l0.1,0.2h-2c-0.1,0-0.2,0-0.3,0.1
			c-0.1,0-0.1,0.1-0.2,0.2l-0.5,1.2H51z M51.9,3.7l1.3-3.2h0.2l2.2,5.3h-0.2l-2.1-5l-1.2,2.9H51.9z"/>
		<path class="st1" d="M62.1,5.2l-2.9-4.6v0h0.2l2.7,4.3l2.2-3.5v0.3L62.1,5.2z M59.2,5.8V1.6l0.2,0.3v3.9H59.2z M64.8,5.8V0.6H65
			v5.3H64.8z M65.5,0.7V0.6h2.5v0.2H65.5z M65.5,3.3V3.1h1.8v0.2H65.5z M65.5,5.8V5.7h2.5v0.2H65.5z"/>
		<path class="st1" d="M68.4,5.8l1.3-1.5c0.1-0.1,0.2-0.2,0.3-0.3C70.1,4,70.3,4,70.5,4h1.9v0.2h-1.9c-0.2,0-0.3,0-0.4,0
			c-0.1,0-0.2,0.1-0.3,0.2l-1.2,1.4H68.4z M70.5,3.5L73,0.6h0.2l3.7,5.2v0.1h-0.2l-3.5-5v5H73v-5l-2.3,2.6H70.5z M76.6,4.6v-4h0.2
			v4.3L76.6,4.6z"/>
		<path class="st1" d="M78.1,5.8V0.6h0.2v5.3H78.1z"/>
		<path class="st1" d="M79.6,5.8V0.6h0.2l3.7,5.2v0.1h-0.2l-3.5-5v5H79.6z M83.2,4.6v-4h0.2v4.3L83.2,4.6z"/>
		<path class="st1" d="M85.7,5.6c-0.5-0.2-0.8-0.6-1.1-1c-0.3-0.4-0.4-0.9-0.4-1.4c0-0.4,0.1-0.7,0.2-1.1c0.1-0.3,0.3-0.6,0.6-0.9
			c0.2-0.2,0.5-0.4,0.9-0.6c0.3-0.1,0.7-0.2,1-0.2c0.2,0,0.5,0,0.7,0.1l-0.1,0.2c-0.2,0-0.4-0.1-0.6-0.1c-0.3,0-0.7,0.1-1,0.2
			c-0.3,0.1-0.6,0.3-0.8,0.5s-0.4,0.5-0.5,0.8c-0.1,0.3-0.2,0.6-0.2,1c0,0.5,0.1,0.9,0.4,1.3c0.3,0.4,0.6,0.7,1,0.9L85.7,5.6z
			 M86.2,5.8l0.1-0.2c0.2,0,0.4,0.1,0.6,0.1c0.5,0,0.9-0.1,1.2-0.3c0.4-0.2,0.7-0.5,0.9-0.9c0.2-0.4,0.3-0.8,0.4-1.2h-2.1V3.1h2.3
			c0,0,0,0.1,0,0.1c0,0.4-0.1,0.7-0.2,1c-0.1,0.3-0.3,0.6-0.6,0.9c-0.2,0.2-0.5,0.4-0.9,0.6c-0.3,0.1-0.7,0.2-1.1,0.2
			C86.6,5.9,86.4,5.9,86.2,5.8z M88,0.9L88,0.8c0.4,0.2,0.8,0.5,1.1,0.9h-0.2C88.7,1.4,88.3,1.1,88,0.9z"/>
		<path class="st1" d="M3.4,11.2L0.5,6.6v0h0.2l2.7,4.3l2.2-3.5v0.3L3.4,11.2z M0.5,11.8V7.6l0.2,0.3v3.9H0.5z M6.1,11.8V6.6h0.2
			v5.3H6.1z"/>
		<path class="st1" d="M6.9,11.8l1.3-1.5c0.1-0.1,0.2-0.2,0.3-0.3C8.6,10,8.8,10,9,10h1.9v0.2H9c-0.2,0-0.3,0-0.4,0
			c-0.1,0-0.2,0.1-0.3,0.2l-1.2,1.4H6.9z M9,9.5l2.5-2.9h0.2l3.7,5.2v0.1h-0.2l-3.5-5v5h-0.2v-5L9.2,9.5H9z M15.1,10.6v-4h0.2v4.3
			L15.1,10.6z"/>
		<path class="st1" d="M16.6,11.8V6.6h0.2v5.3H16.6z"/>
		<path class="st1" d="M18.1,11.8V6.6h0.2l3.7,5.2v0.1h-0.2l-3.5-5v5H18.1z M21.7,10.6v-4h0.2v4.3L21.7,10.6z"/>
		<path class="st1" d="M24.2,11.6c-0.5-0.2-0.8-0.6-1.1-1c-0.3-0.4-0.4-0.9-0.4-1.4c0-0.4,0.1-0.7,0.2-1.1c0.1-0.3,0.3-0.6,0.6-0.9
			C23.7,7,24,6.9,24.3,6.7c0.3-0.1,0.7-0.2,1-0.2c0.2,0,0.5,0,0.7,0.1L26,6.7c-0.2,0-0.4-0.1-0.6-0.1c-0.3,0-0.7,0.1-1,0.2
			c-0.3,0.1-0.6,0.3-0.8,0.5S23.2,7.9,23,8.2c-0.1,0.3-0.2,0.6-0.2,1c0,0.5,0.1,0.9,0.4,1.3c0.3,0.4,0.6,0.7,1,0.9L24.2,11.6z
			 M24.7,11.8l0.1-0.2c0.2,0,0.4,0.1,0.6,0.1c0.5,0,0.9-0.1,1.2-0.3c0.4-0.2,0.7-0.5,0.9-0.9c0.2-0.4,0.3-0.8,0.4-1.2h-2.1V9.1h2.3
			c0,0,0,0.1,0,0.1c0,0.4-0.1,0.7-0.2,1c-0.1,0.3-0.3,0.6-0.6,0.9c-0.2,0.2-0.5,0.4-0.9,0.6c-0.3,0.1-0.7,0.2-1.1,0.2
			C25.1,11.9,24.9,11.9,24.7,11.8z M26.5,6.9l0.1-0.2C27,7,27.3,7.3,27.6,7.7h-0.2C27.2,7.4,26.8,7.1,26.5,6.9z"/>
		<path class="st1" d="M31.7,11.8V6.6h0.2v5.3H31.7z M32.5,11.8v-0.2h0.8c0.4,0,0.9-0.1,1.2-0.3c0.4-0.2,0.7-0.5,0.9-0.9
			s0.3-0.8,0.3-1.2c0-0.3-0.1-0.7-0.2-1c-0.1-0.3-0.3-0.6-0.5-0.8c-0.2-0.2-0.5-0.4-0.8-0.5c-0.3-0.1-0.6-0.2-1-0.2h-0.8V6.6h0.8
			c0.5,0,0.9,0.1,1.3,0.4c0.4,0.2,0.7,0.6,1,1C35.8,8.3,36,8.7,36,9.2c0,0.5-0.1,0.9-0.4,1.3c-0.2,0.4-0.6,0.7-1,1
			c-0.4,0.2-0.8,0.4-1.3,0.4H32.5z"/>
		<path class="st1" d="M36.7,11.8V6.6h0.2v5.3H36.7z M37.5,6.7V6.6H40v0.2H37.5z M37.5,9.3V9.1h1.8v0.2H37.5z M37.5,11.8v-0.2H40
			v0.2H37.5z"/>
		<path class="st1" d="M40.6,10.9l0.2-0.1c0.2,0.3,0.4,0.5,0.7,0.6c0.3,0.1,0.7,0.2,1,0.2c0.2,0,0.4,0,0.6-0.1l0.1,0.2
			c-0.2,0.1-0.4,0.1-0.7,0.1c-0.4,0-0.8-0.1-1.1-0.2C41,11.5,40.7,11.3,40.6,10.9z M43.6,11.5c0.4-0.2,0.6-0.5,0.6-0.9
			c0-0.1,0-0.2-0.1-0.3c0-0.1-0.1-0.2-0.1-0.3c-0.1-0.1-0.1-0.2-0.2-0.2c-0.1-0.1-0.2-0.1-0.3-0.2c-0.1,0-0.2-0.1-0.3-0.2
			c-0.1-0.1-0.3-0.1-0.3-0.1c-0.1,0-0.2-0.1-0.3-0.1c-0.5-0.1-0.8-0.3-1-0.4c-0.5-0.3-0.7-0.6-0.7-1c0-0.4,0.2-0.7,0.5-0.9L41.3,7
			c-0.3,0.2-0.4,0.4-0.4,0.8c0,0.1,0,0.2,0,0.3c0,0.1,0.1,0.2,0.1,0.2c0,0.1,0.1,0.1,0.2,0.2c0.1,0.1,0.2,0.1,0.2,0.2
			c0.1,0,0.2,0.1,0.3,0.1c0.1,0,0.2,0.1,0.3,0.1c0.1,0,0.2,0.1,0.3,0.1C42.7,9,42.9,9.1,43,9.1c0.1,0,0.3,0.1,0.5,0.2
			c0.2,0.1,0.3,0.2,0.5,0.3c0.1,0.1,0.2,0.2,0.3,0.4c0.1,0.2,0.1,0.3,0.1,0.5c0,0.5-0.2,0.9-0.7,1.1L43.6,11.5z M41.9,6.7l-0.1-0.2
			c0.2-0.1,0.4-0.1,0.7-0.1c0.3,0,0.6,0.1,0.9,0.2c0.3,0.1,0.5,0.3,0.8,0.5L44,7.3c-0.2-0.2-0.4-0.3-0.7-0.4
			c-0.3-0.1-0.6-0.2-0.8-0.2C42.2,6.7,42,6.7,41.9,6.7z"/>
		<path class="st1" d="M45.5,11.8V6.6h0.2v5.3H45.5z"/>
		<path class="st1" d="M48.3,11.6c-0.5-0.2-0.8-0.6-1.1-1c-0.3-0.4-0.4-0.9-0.4-1.4c0-0.4,0.1-0.7,0.2-1.1c0.1-0.3,0.3-0.6,0.6-0.9
			c0.2-0.2,0.5-0.4,0.9-0.6c0.3-0.1,0.7-0.2,1-0.2c0.2,0,0.5,0,0.7,0.1L50,6.7c-0.2,0-0.4-0.1-0.6-0.1c-0.3,0-0.7,0.1-1,0.2
			c-0.3,0.1-0.6,0.3-0.8,0.5c-0.2,0.2-0.4,0.5-0.5,0.8c-0.1,0.3-0.2,0.6-0.2,1c0,0.5,0.1,0.9,0.4,1.3c0.3,0.4,0.6,0.7,1,0.9
			L48.3,11.6z M48.8,11.8l0.1-0.2c0.2,0,0.4,0.1,0.6,0.1c0.5,0,0.9-0.1,1.2-0.3c0.4-0.2,0.7-0.5,0.9-0.9c0.2-0.4,0.3-0.8,0.4-1.2
			h-2.1V9.1h2.3c0,0,0,0.1,0,0.1c0,0.4-0.1,0.7-0.2,1c-0.1,0.3-0.3,0.6-0.6,0.9c-0.2,0.2-0.5,0.4-0.9,0.6s-0.7,0.2-1.1,0.2
			C49.2,11.9,49,11.9,48.8,11.8z M50.5,6.9l0.1-0.2C51,7,51.4,7.3,51.7,7.7h-0.2C51.2,7.4,50.9,7.1,50.5,6.9z"/>
		<path class="st1" d="M52.9,11.8V6.6h0.2l3.7,5.2v0.1h-0.2l-3.5-5v5H52.9z M56.6,10.6v-4h0.2v4.3L56.6,10.6z"/>
		<path class="st1" d="M62.4,11.8l-2-5.3h0.2l2,5.3H62.4z M62.8,10.8l1.3-4.2h0.2l1.6,5.3h-0.2l-1.5-5L62.9,11L62.8,10.8z
			 M66.1,10.8l1.6-4.3h0.2l-1.7,4.5L66.1,10.8z"/>
		<path class="st1" d="M68.9,11.8V6.6H69v5.3H68.9z"/>
		<path class="st1" d="M70.1,6.7V6.6h3.6l0.3,0.3C74.1,6.9,74.2,7,74.4,7c0.1,0,0.2,0,0.3-0.1L75,6.6h0.2v2.6h3.1v0.2h-3.1v2.5H75
			v-5L74.8,7c-0.1,0.1-0.3,0.2-0.4,0.2c-0.2,0-0.3-0.1-0.4-0.2l-0.3-0.2H70.1z M72,11.8V7.3h0.2v4.6H72z M78.8,11.8V6.6H79v5.3H78.8
			z"/>
		<path class="st1" d="M82.6,11.8l0.5-1.2c0.1-0.1,0.1-0.2,0.2-0.3c0.1-0.1,0.2-0.1,0.4-0.1h2l0.1,0.2h-2c-0.1,0-0.2,0-0.3,0.1
			s-0.1,0.1-0.2,0.2l-0.5,1.2H82.6z M83.5,9.7l1.3-3.2H85l2.2,5.3H87l-2.1-5l-1.2,2.9H83.5z"/>
		<path class="st1" d="M93.7,11.2l-2.9-4.6v0H91l2.7,4.3l2.2-3.5v0.3L93.7,11.2z M90.8,11.8V7.6L91,7.9v3.9H90.8z M96.4,11.8V6.6
			h0.2v5.3H96.4z M97.1,6.7V6.6h2.5v0.2H97.1z M97.1,9.3V9.1h1.8v0.2H97.1z M97.1,11.8v-0.2h2.5v0.2H97.1z"/>
		<path class="st1" d="M100,11.8l1.3-1.5c0.1-0.1,0.2-0.2,0.3-0.3c0.1,0,0.3-0.1,0.5-0.1h1.9v0.2h-1.9c-0.2,0-0.3,0-0.4,0
			c-0.1,0-0.2,0.1-0.3,0.2l-1.2,1.4H100z M102.1,9.5l2.5-2.9h0.2l3.7,5.2v0.1h-0.2l-3.5-5v5h-0.2v-5l-2.3,2.6H102.1z M108.2,10.6v-4
			h0.2v4.3L108.2,10.6z"/>
		<path class="st1" d="M109.7,11.8V6.6h0.2v5.3H109.7z"/>
		<path class="st1" d="M111.2,11.8V6.6h0.2l3.7,5.2v0.1h-0.2l-3.5-5v5H111.2z M114.8,10.6v-4h0.2v4.3L114.8,10.6z"/>
		<path class="st1" d="M117.3,11.6c-0.5-0.2-0.8-0.6-1.1-1c-0.3-0.4-0.4-0.9-0.4-1.4c0-0.4,0.1-0.7,0.2-1.1c0.1-0.3,0.3-0.6,0.6-0.9
			c0.2-0.2,0.5-0.4,0.9-0.6c0.3-0.1,0.7-0.2,1-0.2c0.2,0,0.5,0,0.7,0.1l-0.1,0.2c-0.2,0-0.4-0.1-0.6-0.1c-0.3,0-0.7,0.1-1,0.2
			c-0.3,0.1-0.6,0.3-0.8,0.5s-0.4,0.5-0.5,0.8c-0.1,0.3-0.2,0.6-0.2,1c0,0.5,0.1,0.9,0.4,1.3c0.3,0.4,0.6,0.7,1,0.9L117.3,11.6z
			 M117.8,11.8l0.1-0.2c0.2,0,0.4,0.1,0.6,0.1c0.5,0,0.9-0.1,1.2-0.3c0.4-0.2,0.7-0.5,0.9-0.9c0.2-0.4,0.3-0.8,0.4-1.2h-2.1V9.1h2.3
			c0,0,0,0.1,0,0.1c0,0.4-0.1,0.7-0.2,1c-0.1,0.3-0.3,0.6-0.6,0.9c-0.2,0.2-0.5,0.4-0.9,0.6c-0.3,0.1-0.7,0.2-1.1,0.2
			C118.2,11.9,118,11.9,117.8,11.8z M119.6,6.9l0.1-0.2c0.4,0.2,0.8,0.5,1.1,0.9h-0.2C120.3,7.4,119.9,7.1,119.6,6.9z"/>
		<path class="st1" d="M0.5,17.8v-5.3h0.2l3.7,5.2v0.1H4.1l-3.5-5v5H0.5z M4.1,16.6v-4h0.2v4.3L4.1,16.6z"/>
		<path class="st1" d="M10,17.8l-2-5.3h0.2l2,5.3H10z M10.4,16.8l1.3-4.2h0.2l1.6,5.3h-0.2l-1.5-5L10.5,17L10.4,16.8z M13.7,16.8
			l1.6-4.3h0.2l-1.7,4.5L13.7,16.8z"/>
		<path class="st1" d="M16.4,17.8v-5.3h0.2v5.3H16.4z"/>
		<path class="st1" d="M17.7,12.7v-0.2h3.6l0.3,0.3c0.1,0.1,0.2,0.1,0.3,0.1c0.1,0,0.2,0,0.3-0.1l0.3-0.3h0.2v2.6h3.1v0.2h-3.1v2.5
			h-0.2v-5L22.4,13c-0.1,0.1-0.3,0.2-0.4,0.2c-0.2,0-0.3-0.1-0.4-0.2l-0.3-0.2H17.7z M19.6,17.8v-4.6h0.2v4.6H19.6z M26.4,17.8v-5.3
			h0.2v5.3H26.4z"/>
		<path class="st1" d="M30.2,17.8l0.5-1.2c0.1-0.1,0.1-0.2,0.2-0.3c0.1-0.1,0.2-0.1,0.4-0.1h2l0.1,0.2h-2c-0.1,0-0.2,0-0.3,0.1
			s-0.1,0.1-0.2,0.2l-0.5,1.2H30.2z M31.1,15.7l1.3-3.2h0.2l2.2,5.3h-0.2l-2.1-5l-1.2,2.9H31.1z"/>
		<path class="st1" d="M41.3,17.2l-2.9-4.6v0h0.2l2.7,4.3l2.2-3.5v0.3L41.3,17.2z M38.4,17.8v-4.2l0.2,0.3v3.9H38.4z M44,17.8v-5.3
			h0.2v5.3H44z M44.7,12.7v-0.2h2.5v0.2H44.7z M44.7,15.3v-0.2h1.8v0.2H44.7z M44.7,17.8v-0.2h2.5v0.2H44.7z"/>
		<path class="st1" d="M47.6,17.8l1.3-1.5c0.1-0.1,0.2-0.2,0.3-0.3c0.1,0,0.3-0.1,0.5-0.1h1.9v0.2h-1.9c-0.2,0-0.3,0-0.4,0
			c-0.1,0-0.2,0.1-0.3,0.2l-1.2,1.4H47.6z M49.6,15.5l2.5-2.9h0.2l3.7,5.2v0.1h-0.2l-3.5-5v5h-0.2v-5l-2.3,2.6H49.6z M55.8,16.6v-4
			H56v4.3L55.8,16.6z"/>
		<path class="st1" d="M57.3,17.8v-5.3h0.2v5.3H57.3z"/>
		<path class="st1" d="M58.8,17.8v-5.3h0.2l3.7,5.2v0.1h-0.2l-3.5-5v5H58.8z M62.4,16.6v-4h0.2v4.3L62.4,16.6z"/>
		<path class="st1" d="M64.9,17.6c-0.5-0.2-0.8-0.6-1.1-1c-0.3-0.4-0.4-0.9-0.4-1.4c0-0.4,0.1-0.7,0.2-1.1c0.1-0.3,0.3-0.6,0.6-0.9
			c0.2-0.2,0.5-0.4,0.9-0.6c0.3-0.1,0.7-0.2,1-0.2c0.2,0,0.5,0,0.7,0.1l-0.1,0.2c-0.2,0-0.4-0.1-0.6-0.1c-0.3,0-0.7,0.1-1,0.2
			c-0.3,0.1-0.6,0.3-0.8,0.5c-0.2,0.2-0.4,0.5-0.5,0.8c-0.1,0.3-0.2,0.6-0.2,1c0,0.5,0.1,0.9,0.4,1.3c0.3,0.4,0.6,0.7,1,0.9
			L64.9,17.6z M65.4,17.8l0.1-0.2c0.2,0,0.4,0.1,0.6,0.1c0.5,0,0.9-0.1,1.2-0.3c0.4-0.2,0.7-0.5,0.9-0.9c0.2-0.4,0.3-0.8,0.4-1.2
			h-2.1v-0.2h2.3c0,0,0,0.1,0,0.1c0,0.4-0.1,0.7-0.2,1c-0.1,0.3-0.3,0.6-0.6,0.9c-0.2,0.2-0.5,0.4-0.9,0.6c-0.3,0.1-0.7,0.2-1.1,0.2
			C65.8,17.9,65.6,17.9,65.4,17.8z M67.2,12.9l0.1-0.2c0.4,0.2,0.8,0.5,1.1,0.9h-0.2C67.8,13.4,67.5,13.1,67.2,12.9z"/>
		<path class="st1" d="M0.5,23.8v-5.3h0.2l3.7,5.2v0.1H4.1l-3.5-5v5H0.5z M4.1,22.6v-4h0.2v4.3L4.1,22.6z"/>
		<path class="st1" d="M5.6,23.8v-5.3h0.2v5.3H5.6z"/>
		<path class="st1" d="M7.1,23.8v-5.3h0.2l3.7,5.2v0.1h-0.2l-3.5-5v5H7.1z M10.7,22.6v-4h0.2v4.3L10.7,22.6z"/>
		<path class="st1" d="M13.2,23.6c-0.5-0.2-0.8-0.6-1.1-1c-0.3-0.4-0.4-0.9-0.4-1.4c0-0.4,0.1-0.7,0.2-1.1c0.1-0.3,0.3-0.6,0.6-0.9
			c0.2-0.2,0.5-0.4,0.9-0.6c0.3-0.1,0.7-0.2,1-0.2c0.2,0,0.5,0,0.7,0.1L15,18.7c-0.2,0-0.4-0.1-0.6-0.1c-0.3,0-0.7,0.1-1,0.2
			c-0.3,0.1-0.6,0.3-0.8,0.5c-0.2,0.2-0.4,0.5-0.5,0.8c-0.1,0.3-0.2,0.6-0.2,1c0,0.5,0.1,0.9,0.4,1.3c0.3,0.4,0.6,0.7,1,0.9
			L13.2,23.6z M13.7,23.8l0.1-0.2c0.2,0,0.4,0.1,0.6,0.1c0.5,0,0.9-0.1,1.2-0.3c0.4-0.2,0.7-0.5,0.9-0.9c0.2-0.4,0.3-0.8,0.4-1.2
			h-2.1v-0.2h2.3c0,0,0,0.1,0,0.1c0,0.4-0.1,0.7-0.2,1c-0.1,0.3-0.3,0.6-0.6,0.9c-0.2,0.2-0.5,0.4-0.9,0.6c-0.3,0.1-0.7,0.2-1.1,0.2
			C14.2,23.9,13.9,23.9,13.7,23.8z M15.5,18.9l0.1-0.2c0.4,0.2,0.8,0.5,1.1,0.9h-0.2C16.2,19.3,15.9,19.1,15.5,18.9z"/>
		<path class="st1" d="M20.8,23.8v-5.3h0.2v5.3H20.8z M21.5,23.8v-0.2h0.8c0.4,0,0.9-0.1,1.2-0.3c0.4-0.2,0.7-0.5,0.9-0.9
			s0.3-0.8,0.3-1.2c0-0.3-0.1-0.7-0.2-1c-0.1-0.3-0.3-0.6-0.5-0.8c-0.2-0.2-0.5-0.4-0.8-0.5c-0.3-0.1-0.6-0.2-1-0.2h-0.8v-0.2h0.8
			c0.5,0,0.9,0.1,1.3,0.4c0.4,0.2,0.7,0.6,1,1c0.2,0.4,0.4,0.8,0.4,1.3c0,0.5-0.1,0.9-0.4,1.3c-0.2,0.4-0.6,0.7-1,1
			c-0.4,0.2-0.8,0.4-1.3,0.4H21.5z"/>
		<path class="st1" d="M25.7,23.8v-5.3h0.2v5.3H25.7z M26.5,18.7v-0.2H29v0.2H26.5z M26.5,21.3v-0.2h1.8v0.2H26.5z M26.5,23.8v-0.2
			H29v0.2H26.5z"/>
		<path class="st1" d="M29.6,22.9l0.2-0.1c0.2,0.3,0.4,0.5,0.7,0.6c0.3,0.1,0.7,0.2,1,0.2c0.2,0,0.4,0,0.6-0.1l0.1,0.2
			c-0.2,0.1-0.4,0.1-0.7,0.1c-0.4,0-0.8-0.1-1.1-0.2C30,23.5,29.7,23.2,29.6,22.9z M32.6,23.5c0.4-0.2,0.6-0.5,0.6-0.9
			c0-0.1,0-0.2-0.1-0.3c0-0.1-0.1-0.2-0.1-0.3c-0.1-0.1-0.1-0.2-0.2-0.2c-0.1-0.1-0.2-0.1-0.3-0.2c-0.1,0-0.2-0.1-0.3-0.2
			s-0.3-0.1-0.3-0.1c-0.1,0-0.2-0.1-0.3-0.1c-0.5-0.1-0.8-0.3-1-0.4c-0.5-0.3-0.7-0.6-0.7-1c0-0.4,0.2-0.7,0.5-0.9l0.1,0.2
			c-0.3,0.2-0.4,0.4-0.4,0.8c0,0.1,0,0.2,0,0.3c0,0.1,0.1,0.2,0.1,0.2c0,0.1,0.1,0.1,0.2,0.2c0.1,0.1,0.2,0.1,0.2,0.2
			c0.1,0,0.2,0.1,0.3,0.1c0.1,0,0.2,0.1,0.3,0.1c0.1,0,0.2,0.1,0.3,0.1c0.2,0.1,0.4,0.1,0.6,0.2c0.1,0,0.3,0.1,0.5,0.2
			c0.2,0.1,0.3,0.2,0.5,0.3c0.1,0.1,0.2,0.2,0.3,0.4c0.1,0.2,0.1,0.3,0.1,0.5c0,0.5-0.2,0.9-0.7,1.1L32.6,23.5z M30.9,18.7l-0.1-0.2
			c0.2-0.1,0.4-0.1,0.7-0.1c0.3,0,0.6,0.1,0.9,0.2c0.3,0.1,0.5,0.3,0.8,0.5L33,19.3c-0.2-0.2-0.4-0.3-0.7-0.4s-0.6-0.2-0.8-0.2
			C31.3,18.7,31.1,18.7,30.9,18.7z"/>
		<path class="st1" d="M34.5,23.8v-5.3h0.2v5.3H34.5z"/>
		<path class="st1" d="M37.3,23.6c-0.5-0.2-0.8-0.6-1.1-1c-0.3-0.4-0.4-0.9-0.4-1.4c0-0.4,0.1-0.7,0.2-1.1c0.1-0.3,0.3-0.6,0.6-0.9
			c0.2-0.2,0.5-0.4,0.9-0.6c0.3-0.1,0.7-0.2,1-0.2c0.2,0,0.5,0,0.7,0.1L39,18.7c-0.2,0-0.4-0.1-0.6-0.1c-0.3,0-0.7,0.1-1,0.2
			c-0.3,0.1-0.6,0.3-0.8,0.5c-0.2,0.2-0.4,0.5-0.5,0.8c-0.1,0.3-0.2,0.6-0.2,1c0,0.5,0.1,0.9,0.4,1.3c0.3,0.4,0.6,0.7,1,0.9
			L37.3,23.6z M37.8,23.8l0.1-0.2c0.2,0,0.4,0.1,0.6,0.1c0.5,0,0.9-0.1,1.2-0.3c0.4-0.2,0.7-0.5,0.9-0.9c0.2-0.4,0.3-0.8,0.4-1.2
			h-2.1v-0.2h2.3c0,0,0,0.1,0,0.1c0,0.4-0.1,0.7-0.2,1c-0.1,0.3-0.3,0.6-0.6,0.9c-0.2,0.2-0.5,0.4-0.9,0.6c-0.3,0.1-0.7,0.2-1.1,0.2
			C38.2,23.9,38,23.9,37.8,23.8z M39.6,18.9l0.1-0.2c0.4,0.2,0.8,0.5,1.1,0.9h-0.2C40.2,19.3,39.9,19.1,39.6,18.9z"/>
		<path class="st1" d="M41.9,23.8v-5.3h0.2l3.7,5.2v0.1h-0.2l-3.5-5v5H41.9z M45.6,22.6v-4h0.2v4.3L45.6,22.6z"/>
		<path class="st1" d="M51.4,23.8l-2-5.3h0.2l2,5.3H51.4z M51.8,22.8l1.3-4.2h0.2l1.6,5.3h-0.2l-1.5-5L51.9,23L51.8,22.8z
			 M55.1,22.8l1.6-4.3h0.2l-1.7,4.5L55.1,22.8z"/>
		<path class="st1" d="M57.9,23.8v-5.3H58v5.3H57.9z"/>
		<path class="st1" d="M59.1,18.7v-0.2h3.6l0.3,0.3c0.1,0.1,0.2,0.1,0.3,0.1c0.1,0,0.2,0,0.3-0.1l0.3-0.3h0.2v2.6h3.1v0.2h-3.1v2.5
			H64v-5L63.8,19c-0.1,0.1-0.3,0.2-0.4,0.2c-0.2,0-0.3-0.1-0.4-0.2l-0.3-0.2H59.1z M61,23.8v-4.6h0.2v4.6H61z M67.8,23.8v-5.3H68
			v5.3H67.8z"/>
		<path class="st1" d="M71.6,23.8l0.5-1.2c0.1-0.1,0.1-0.2,0.2-0.3c0.1-0.1,0.2-0.1,0.4-0.1h2l0.1,0.2h-2c-0.1,0-0.2,0-0.3,0.1
			c-0.1,0-0.1,0.1-0.2,0.2l-0.5,1.2H71.6z M72.5,21.7l1.3-3.2H74l2.2,5.3H76l-2.1-5l-1.2,2.9H72.5z"/>
		<path class="st1" d="M82.7,23.2l-2.9-4.6v0H80l2.7,4.3l2.2-3.5v0.3L82.7,23.2z M79.8,23.8v-4.2l0.2,0.3v3.9H79.8z M85.4,23.8v-5.3
			h0.2v5.3H85.4z M86.1,18.7v-0.2h2.5v0.2H86.1z M86.1,21.3v-0.2h1.8v0.2H86.1z M86.1,23.8v-0.2h2.5v0.2H86.1z"/>
		<path class="st1" d="M89,23.8l1.3-1.5c0.1-0.1,0.2-0.2,0.3-0.3c0.1,0,0.3-0.1,0.5-0.1H93v0.2h-1.9c-0.2,0-0.3,0-0.4,0
			c-0.1,0-0.2,0.1-0.3,0.2l-1.2,1.4H89z M91.1,21.5l2.5-2.9h0.2l3.7,5.2v0.1h-0.2l-3.5-5v5h-0.2v-5l-2.3,2.6H91.1z M97.2,22.6v-4
			h0.2v4.3L97.2,22.6z"/>
		<path class="st1" d="M98.7,23.8v-5.3h0.2v5.3H98.7z"/>
		<path class="st1" d="M100.2,23.8v-5.3h0.2l3.7,5.2v0.1h-0.2l-3.5-5v5H100.2z M103.8,22.6v-4h0.2v4.3L103.8,22.6z"/>
		<path class="st1" d="M106.3,23.6c-0.5-0.2-0.8-0.6-1.1-1c-0.3-0.4-0.4-0.9-0.4-1.4c0-0.4,0.1-0.7,0.2-1.1c0.1-0.3,0.3-0.6,0.6-0.9
			c0.2-0.2,0.5-0.4,0.9-0.6c0.3-0.1,0.7-0.2,1-0.2c0.2,0,0.5,0,0.7,0.1l-0.1,0.2c-0.2,0-0.4-0.1-0.6-0.1c-0.3,0-0.7,0.1-1,0.2
			c-0.3,0.1-0.6,0.3-0.8,0.5c-0.2,0.2-0.4,0.5-0.5,0.8c-0.1,0.3-0.2,0.6-0.2,1c0,0.5,0.1,0.9,0.4,1.3c0.3,0.4,0.6,0.7,1,0.9
			L106.3,23.6z M106.8,23.8l0.1-0.2c0.2,0,0.4,0.1,0.6,0.1c0.5,0,0.9-0.1,1.2-0.3c0.4-0.2,0.7-0.5,0.9-0.9c0.2-0.4,0.3-0.8,0.4-1.2
			h-2.1v-0.2h2.3c0,0,0,0.1,0,0.1c0,0.4-0.1,0.7-0.2,1c-0.1,0.3-0.3,0.6-0.6,0.9c-0.2,0.2-0.5,0.4-0.9,0.6c-0.3,0.1-0.7,0.2-1.1,0.2
			C107.3,23.9,107,23.9,106.8,23.8z M108.6,18.9l0.1-0.2c0.4,0.2,0.8,0.5,1.1,0.9h-0.2C109.3,19.3,109,19.1,108.6,18.9z"/>
		<path class="st1" d="M2.4,29.8l-2-5.3h0.2l2,5.3H2.4z M2.8,28.9l1.7-4.3h0.2l-1.8,4.6L2.8,28.9z"/>
		<path class="st1" d="M5.5,29.8v-5.3h0.2v5.3H5.5z"/>
		<path class="st1" d="M6.8,24.7v-0.2h3.6l0.3,0.3c0.1,0.1,0.2,0.1,0.3,0.1c0.1,0,0.2,0,0.3-0.1l0.3-0.3h0.2v2.6h3.1v0.2h-3.1v2.5
			h-0.2v-5L11.5,25c-0.1,0.1-0.3,0.2-0.4,0.2c-0.2,0-0.3-0.1-0.4-0.2l-0.3-0.2H6.8z M8.7,29.8v-4.6h0.2v4.6H8.7z M15.5,29.8v-5.3
			h0.2v5.3H15.5z"/>
		<path class="st1" d="M19.3,29.8l0.5-1.2c0.1-0.1,0.1-0.2,0.2-0.3c0.1-0.1,0.2-0.1,0.4-0.1h2l0.1,0.2h-2c-0.1,0-0.2,0-0.3,0.1
			c-0.1,0-0.1,0.1-0.2,0.2l-0.5,1.2H19.3z M20.2,27.7l1.3-3.2h0.2l2.2,5.3h-0.2l-2.1-5l-1.2,2.9H20.2z"/>
		<path class="st1" d="M30.4,29.2l-2.9-4.6v0h0.2l2.7,4.3l2.2-3.5v0.3L30.4,29.2z M27.5,29.8v-4.2l0.2,0.3v3.9H27.5z M33.1,29.8
			v-5.3h0.2v5.3H33.1z M33.8,24.7v-0.2h2.5v0.2H33.8z M33.8,27.3v-0.2h1.8v0.2H33.8z M33.8,29.8v-0.2h2.5v0.2H33.8z"/>
		<path class="st1" d="M36.7,29.8l1.3-1.5c0.1-0.1,0.2-0.2,0.3-0.3c0.1,0,0.3-0.1,0.5-0.1h1.9v0.2h-1.9c-0.2,0-0.3,0-0.4,0
			c-0.1,0-0.2,0.1-0.3,0.2l-1.2,1.4H36.7z M38.7,27.4l2.5-2.9h0.2l3.7,5.2v0.1h-0.2l-3.5-5v5h-0.2v-5L39,27.4H38.7z M44.9,28.6v-4
			h0.2v4.3L44.9,28.6z"/>
		<path class="st1" d="M46.4,29.8v-5.3h0.2v5.3H46.4z"/>
		<path class="st1" d="M47.9,29.8v-5.3H48l3.7,5.2v0.1h-0.2l-3.5-5v5H47.9z M51.5,28.6v-4h0.2v4.3L51.5,28.6z"/>
		<path class="st1" d="M54,29.6c-0.5-0.2-0.8-0.6-1.1-1c-0.3-0.4-0.4-0.9-0.4-1.4c0-0.4,0.1-0.7,0.2-1.1c0.1-0.3,0.3-0.6,0.6-0.9
			c0.2-0.2,0.5-0.4,0.9-0.6c0.3-0.1,0.7-0.2,1-0.2c0.2,0,0.5,0,0.7,0.1l-0.1,0.2c-0.2,0-0.4-0.1-0.6-0.1c-0.3,0-0.7,0.1-1,0.2
			c-0.3,0.1-0.6,0.3-0.8,0.5c-0.2,0.2-0.4,0.5-0.5,0.8c-0.1,0.3-0.2,0.6-0.2,1c0,0.5,0.1,0.9,0.4,1.3c0.3,0.4,0.6,0.7,1,0.9L54,29.6
			z M54.5,29.8l0.1-0.2c0.2,0,0.4,0.1,0.6,0.1c0.5,0,0.9-0.1,1.2-0.3c0.4-0.2,0.7-0.5,0.9-0.9c0.2-0.4,0.3-0.8,0.4-1.2h-2.1v-0.2
			h2.3c0,0,0,0.1,0,0.1c0,0.4-0.1,0.7-0.2,1c-0.1,0.3-0.3,0.6-0.6,0.9c-0.2,0.2-0.5,0.4-0.9,0.6c-0.3,0.1-0.7,0.2-1.1,0.2
			C54.9,29.9,54.7,29.8,54.5,29.8z M56.3,24.9l0.1-0.2c0.4,0.2,0.8,0.5,1.1,0.9h-0.2C56.9,25.3,56.6,25.1,56.3,24.9z"/>
	</g>
</g>
</svg>
